<svg width="24" height="16" viewBox="0 0 24 16" fill="none" xmlns="http://www.w3.org/2000/svg">
<path d="M11.3039 3.21436V15.2545L9.0966 14.1508C8.14342 13.6765 7.11272 13.3755 6.05009 13.2706L1.67186 12.8328C0.928479 12.7552 0.358398 12.1304 0.358398 11.3779V2.11981C0.358398 1.31257 1.01057 0.6604 1.81781 0.6604H3.19968C6.10025 0.6604 8.92785 1.55429 11.3039 3.21436ZM12.7634 15.2545V3.21436C15.1395 1.55429 17.9671 0.6604 20.8676 0.6604H22.2495C23.0567 0.6604 23.7089 1.31257 23.7089 2.11981V11.3779C23.7089 12.1259 23.1388 12.7552 22.3954 12.8282L18.0172 13.266C16.9592 13.3709 15.9239 13.6719 14.9707 14.1462L12.7634 15.2545Z" fill="#6F779D"/>
<path d="M19.3574 0.732223C19.3574 0.732223 19.6302 0.699244 20.1879 0.634522C20.5694 0.59025 21.75 0.582263 21.75 0.582263L22.9068 0.600339C23.3541 0.607328 23.7131 0.971929 23.7131 1.41929V5.27531H22.3634V5.27531C22.3158 4.07045 20.5453 4.0765 20.4157 5.27531V5.27531H19.3574V3.80298V3.80298C20.4189 3.69765 20.4231 2.13136 19.3574 2.08527V2.08527V0.732223Z" fill="#8992C5"/>
<path d="M15.3015 7.22257C15.3015 7.19844 15.2915 7.1753 15.2737 7.15824C15.2559 7.14118 15.2317 7.13159 15.2065 7.13159C15.1812 7.13159 15.157 7.14118 15.1392 7.15824C15.1214 7.1753 15.1114 7.19844 15.1114 7.22257V7.37517C14.9587 7.37844 14.8064 7.3897 14.655 7.4089C14.6427 7.41047 14.6307 7.41437 14.6199 7.42036C14.6091 7.42635 14.5996 7.43431 14.5921 7.44381C14.5845 7.4533 14.5789 7.46412 14.5757 7.47567C14.5725 7.48721 14.5717 7.49925 14.5733 7.5111C14.575 7.52294 14.579 7.53436 14.5853 7.5447C14.5916 7.55504 14.5999 7.56409 14.6098 7.57135C14.6197 7.57861 14.631 7.58393 14.6431 7.58701C14.6552 7.59008 14.6678 7.59086 14.6801 7.58928C14.926 7.55807 15.1744 7.54882 15.422 7.56162C15.3695 7.73121 15.2972 7.89459 15.2065 8.04866C15.159 7.96823 15.1166 7.88519 15.0794 7.79999C15.0693 7.77836 15.0507 7.76137 15.0277 7.75264C15.0046 7.74392 14.9789 7.74414 14.9561 7.75326C14.9332 7.76238 14.9149 7.77969 14.9052 7.80149C14.8955 7.82329 14.895 7.84786 14.9039 7.86998C14.9573 7.99219 15.0205 8.11021 15.0931 8.22298C14.9576 8.41248 14.7941 8.5822 14.6077 8.72689C14.5976 8.73427 14.5891 8.74353 14.5828 8.7541C14.5765 8.76468 14.5725 8.77636 14.571 8.78846C14.5695 8.80055 14.5705 8.81281 14.5741 8.82451C14.5776 8.83621 14.5836 8.84712 14.5916 8.85657C14.5996 8.86603 14.6095 8.87385 14.6208 8.87956C14.632 8.88528 14.6443 8.88878 14.657 8.88985C14.6697 8.89093 14.6825 8.88955 14.6946 8.88581C14.7067 8.88208 14.7179 8.87605 14.7276 8.86809C14.9085 8.72761 15.0695 8.56515 15.2065 8.3848C15.2185 8.40082 15.2308 8.41658 15.2432 8.43223C15.2585 8.45144 15.2812 8.46405 15.3062 8.46728C15.3312 8.47051 15.3565 8.4641 15.3766 8.44946C15.3967 8.43482 15.4099 8.41315 15.4132 8.38922C15.4166 8.36529 15.4099 8.34105 15.3946 8.32185C15.3688 8.28953 15.3438 8.25656 15.3198 8.22298C15.4495 8.02164 15.549 7.80393 15.6156 7.57618C15.6549 7.57994 15.694 7.58443 15.7328 7.58928C15.7578 7.59246 15.7831 7.58602 15.8031 7.57135C15.8231 7.55669 15.8363 7.53502 15.8396 7.5111C15.8429 7.48718 15.8362 7.46297 15.8209 7.44381C15.8055 7.42464 15.7829 7.41208 15.7579 7.4089C15.6065 7.38966 15.4542 7.3784 15.3015 7.37517V7.22257Z" fill="white"/>
<path fill-rule="evenodd" clip-rule="evenodd" d="M21.4593 10.2578C21.477 10.2578 21.4943 10.2627 21.5094 10.272C21.5244 10.2814 21.5366 10.2947 21.5445 10.3105L22.084 11.3895C22.0897 11.4007 22.0931 11.4129 22.0941 11.4255C22.095 11.438 22.0935 11.4506 22.0895 11.4625C22.0856 11.4745 22.0794 11.4855 22.0711 11.495C22.0629 11.5045 22.0529 11.5123 22.0416 11.5179C22.0304 11.5235 22.0182 11.5268 22.0056 11.5277C21.9931 11.5286 21.9805 11.5269 21.9686 11.5229C21.9567 11.5189 21.9457 11.5125 21.9363 11.5042C21.9268 11.4959 21.9191 11.4859 21.9136 11.4746L21.8131 11.2734H21.1056L21.0049 11.4746C20.9994 11.4859 20.9917 11.4959 20.9823 11.5042C20.9728 11.5125 20.9618 11.5189 20.9499 11.5229C20.938 11.5269 20.9255 11.5286 20.9129 11.5277C20.9004 11.5268 20.8881 11.5235 20.8769 11.5179C20.8657 11.5123 20.8556 11.5045 20.8474 11.495C20.8392 11.4855 20.8329 11.4745 20.829 11.4625C20.8251 11.4506 20.8235 11.438 20.8245 11.4255C20.8255 11.4129 20.8289 11.4007 20.8346 11.3895L21.3741 10.3105C21.382 10.2947 21.3942 10.2814 21.4092 10.272C21.4242 10.2627 21.4416 10.2578 21.4593 10.2578ZM21.7179 11.083L21.4593 10.5659L21.2008 11.083H21.7179Z" fill="white"/>
<path d="M15.1052 10.7088L14.9553 10.7034C14.9553 10.7269 14.9534 10.7594 14.9498 10.7919C14.9336 10.9472 14.8975 11.2398 14.8975 11.4873C14.8975 11.7166 14.9462 11.9731 14.9986 12.1338L15.1304 12.0941C15.0745 11.9243 15.0239 11.7076 15.0239 11.4728C15.0239 11.2254 15.0546 10.94 15.0853 10.7883C15.0907 10.763 15.0979 10.7305 15.1052 10.7088ZM14.8144 10.931C14.7367 10.931 14.5796 10.9201 14.5164 10.9093L14.52 11.0448C14.594 11.0484 14.7349 11.0556 14.8126 11.0556C15.0817 11.0556 15.4375 11.0285 15.6976 10.9833L15.6958 10.8497C15.4465 10.9057 15.1323 10.931 14.8144 10.931ZM15.5675 11.1441L15.423 11.108C15.4212 11.1369 15.4122 11.1856 15.405 11.2127C15.3219 11.5053 15.1738 11.7004 15.0131 11.8412C14.8975 11.9424 14.7801 11.993 14.6898 11.993C14.6229 11.993 14.5868 11.9568 14.5868 11.8828C14.5868 11.7166 14.7494 11.518 14.9534 11.4276C15.0456 11.3861 15.1792 11.3428 15.3309 11.3428C15.6 11.3428 15.7481 11.4963 15.7481 11.6715C15.7481 11.9045 15.5459 12.0724 15.2208 12.1086L15.2984 12.2296C15.7174 12.1627 15.889 11.937 15.889 11.6787C15.889 11.4258 15.6741 11.2272 15.3327 11.2272C15.2153 11.2272 15.069 11.2543 14.948 11.3012C14.6807 11.4042 14.4514 11.6588 14.4514 11.9063C14.4514 12.0598 14.5453 12.132 14.6645 12.132C14.7927 12.132 14.9372 12.0652 15.0528 11.9767C15.2424 11.8304 15.423 11.5794 15.5296 11.2452C15.5404 11.2163 15.5567 11.1676 15.5675 11.1441Z" fill="white"/>
<g opacity="0.4">
<path opacity="0.0526316" d="M1.86261 5.87928C1.6869 6.22214 1.55206 7.0716 2.41835 7.72651C3.50122 8.54515 4.95619 8.26354 6.14323 8.86684C7.01935 9.31212 8.82291 10.8265 8.68915 12.3733" stroke="white" stroke-width="0.100339"/>
<path opacity="0.105263" d="M2.34717 5.36156C2.13587 5.69008 1.90707 6.53338 2.68227 7.27842C3.65126 8.20972 5.11026 8.06806 6.2059 8.79243C7.01457 9.32707 8.61131 11.0304 8.3043 12.5769" stroke="white" stroke-width="0.100339"/>
<path opacity="0.157895" d="M2.86462 4.88283C2.62004 5.19341 2.29978 6.02131 2.97539 6.84832C3.8199 7.88208 5.26694 7.88192 6.25918 8.71942C6.99153 9.33756 8.36396 11.2111 7.88707 12.7404" stroke="white" stroke-width="0.100339"/>
<path opacity="0.210526" d="M3.40936 4.44691C3.13418 4.73613 2.72598 5.53956 3.29459 6.43948C4.00536 7.56438 5.4246 7.70572 6.30256 8.64718C6.95057 9.34205 8.08365 11.3653 7.44211 12.8606" stroke="white" stroke-width="0.100339"/>
<path opacity="0.263158" d="M3.97884 4.05654C3.67608 4.32125 3.1844 5.09141 3.6398 6.05438C4.20903 7.25808 5.58492 7.53938 6.33899 8.57449C6.89555 9.33848 7.77688 11.4892 6.97771 12.9342" stroke="white" stroke-width="0.100339"/>
<path opacity="0.315789" d="M4.56478 3.71444C4.23775 3.95173 3.66798 4.68018 4.00516 5.69564C4.42664 6.96497 5.74409 7.38314 6.36601 8.50055C6.82503 9.32528 7.44494 11.58 6.4969 12.9587" stroke="white" stroke-width="0.100339"/>
<path opacity="0.368421" d="M5.16094 3.42298C4.81322 3.63026 4.17161 4.30902 4.38689 5.36585C4.65598 6.68689 5.90057 7.23736 6.38352 8.42482C6.73997 9.30126 7.09167 11.6353 6.00515 12.9327" stroke="white" stroke-width="0.100339"/>
<path opacity="0.421053" d="M5.7622 3.18306C5.39761 3.35805 4.69119 3.97968 4.78219 5.06631C4.89595 6.42459 6.05405 7.10132 6.39273 8.34583C6.64271 9.26438 6.72235 11.6521 5.50925 12.854" stroke="white" stroke-width="0.100339"/>
<path opacity="0.473684" d="M6.36356 2.99675C5.98609 3.13753 5.2226 3.69522 5.18834 4.79974C5.14552 6.18038 6.20443 6.97595 6.39514 8.26388C6.5359 9.21447 6.34261 11.6297 5.01622 12.7229" stroke="white" stroke-width="0.100339"/>
<path opacity="0.526316" d="M6.95919 2.86317C6.57297 2.96821 5.76076 3.45585 5.60162 4.56615C5.40269 5.95403 6.35081 6.85973 6.39146 8.17696C6.42147 9.14918 5.95737 11.5655 4.53221 12.5381" stroke="white" stroke-width="0.100339"/>
<path opacity="0.578947" d="M7.53944 2.78291C7.14872 2.85104 6.2967 3.2633 6.01441 4.36722C5.66155 5.74712 6.48849 6.75303 6.37864 8.08514C6.29756 9.06833 5.56772 11.4593 4.05943 12.3005" stroke="white" stroke-width="0.100339"/>
<path opacity="0.631579" d="M8.10264 2.75483C7.71168 2.78532 6.82919 3.11767 6.42685 4.20312C5.92393 5.55993 6.62063 6.65502 6.36148 7.9874C6.1702 8.9708 5.18263 11.3101 3.60772 12.0108" stroke="white" stroke-width="0.100339"/>
<path opacity="0.684211" d="M8.64234 2.77735C8.25543 2.76986 7.35213 3.01866 6.83415 4.07374C6.18668 5.3926 6.74551 6.56488 6.33989 7.88293C6.04051 8.85576 4.80603 11.1179 3.18176 11.6704" stroke="white" stroke-width="0.100339"/>
<path opacity="0.736842" d="M9.1522 2.84841C8.77359 2.80302 7.85937 2.96554 7.23143 3.9787C6.44649 5.24515 6.86133 6.48178 6.31369 7.77108C5.90949 8.72268 4.44162 10.8828 2.78578 11.281" stroke="white" stroke-width="0.100339"/>
<path opacity="0.789474" d="M9.627 2.96672C9.26082 2.88394 8.34571 2.9584 7.61468 3.91854C6.70089 5.1187 6.96718 6.40612 6.28353 7.65253C5.77894 8.57247 4.09376 10.6069 2.4245 10.8465" stroke="white" stroke-width="0.100339"/>
<path opacity="0.842105" d="M10.0626 3.12813C9.71284 3.00886 8.80686 2.99445 7.98075 3.89104C6.94811 5.01177 7.06295 6.33589 6.25076 7.52575C5.65131 8.40396 3.76729 10.2904 2.10288 10.3688" stroke="white" stroke-width="0.100339"/>
<path opacity="0.894737" d="M10.4558 3.32977C10.1264 3.1753 9.23945 3.07218 8.32731 3.8954C7.18714 4.92443 7.14926 6.27072 6.21745 7.39101C5.5297 8.21786 3.46747 9.9357 1.82617 9.85192" stroke="white" stroke-width="0.100339"/>
<path opacity="0.947368" d="M10.8038 3.56735C10.4982 3.37939 9.64006 3.18869 8.65189 3.92952C7.41668 4.85556 7.2265 6.20929 6.18527 7.24771C5.41676 8.01415 3.19893 9.54454 1.59871 9.29957" stroke="white" stroke-width="0.100339"/>
<path d="M11.0996 3.83694C10.8213 3.61755 10.0013 3.34135 8.94792 3.99168C7.6312 4.80459 7.29081 6.15092 6.15156 7.09611C5.31071 7.79374 2.96157 9.11991 1.41996 8.71642" stroke="white" stroke-width="0.100339"/>
</g>
<path d="M18.9462 8.24715C18.8294 8.24715 18.7319 8.2327 18.6536 8.2038C18.5754 8.17611 18.5164 8.13698 18.4767 8.08641C18.4381 8.03704 18.4189 7.97985 18.4189 7.91483C18.4189 7.88472 18.4255 7.85523 18.4387 7.82633C18.452 7.79743 18.4724 7.77335 18.5001 7.75408C18.5158 7.74325 18.5326 7.73422 18.5507 7.72699C18.5688 7.71977 18.5922 7.71435 18.6211 7.71074C18.6512 7.70712 18.6904 7.70532 18.7385 7.70532H20.0877L20.0931 7.83536H18.7584C18.7211 7.83536 18.6922 7.83596 18.6717 7.83716C18.6524 7.83837 18.638 7.84078 18.6284 7.84439C18.6187 7.848 18.6091 7.85342 18.5995 7.86064C18.5814 7.87509 18.5724 7.89556 18.5724 7.92205C18.5724 7.98105 18.6043 8.02801 18.6681 8.06293C18.7319 8.09785 18.8282 8.1153 18.9571 8.1153H18.9878C19.1094 8.1153 19.2135 8.10086 19.3002 8.07196C19.3881 8.04426 19.4604 8.00573 19.517 7.95637C19.5748 7.907 19.6181 7.85101 19.647 7.7884L19.6542 7.75408C19.6651 7.72398 19.6729 7.69388 19.6777 7.66378C19.6825 7.63247 19.6849 7.60117 19.6849 7.56986C19.6849 7.50002 19.6729 7.4338 19.6488 7.37119C19.6247 7.30858 19.5874 7.2562 19.5368 7.21406C19.4875 7.17071 19.4237 7.14302 19.3454 7.13097C19.3297 7.12857 19.3147 7.12736 19.3002 7.12736C19.287 7.12616 19.2725 7.12556 19.2569 7.12556C19.2196 7.12556 19.1852 7.13218 19.1539 7.14542C19.1226 7.15867 19.0974 7.17854 19.0781 7.20503C19.06 7.23152 19.051 7.26523 19.051 7.30617C19.051 7.35072 19.0642 7.38865 19.0907 7.41995C19.1184 7.45005 19.157 7.46511 19.2063 7.46511C19.2521 7.46511 19.2882 7.45126 19.3147 7.42356C19.3424 7.39467 19.3562 7.35373 19.3562 7.30075C19.3562 7.26101 19.3496 7.22549 19.3364 7.19419C19.3243 7.16168 19.3026 7.13097 19.2713 7.10208L19.3743 7.07137C19.396 7.08943 19.4158 7.11051 19.4339 7.13459C19.4532 7.15867 19.4682 7.18576 19.479 7.21586C19.4911 7.24476 19.4971 7.27546 19.4971 7.30797C19.4971 7.35012 19.4905 7.38865 19.4772 7.42356C19.4652 7.45728 19.4465 7.48678 19.4212 7.51206C19.396 7.53615 19.3647 7.55481 19.3273 7.56805C19.2912 7.5813 19.2497 7.58792 19.2027 7.58792C19.1485 7.58792 19.0992 7.57769 19.0546 7.55722C19.0101 7.53675 18.9745 7.50604 18.948 7.46511C18.9216 7.42417 18.9083 7.3736 18.9083 7.31339C18.9083 7.23874 18.9258 7.17854 18.9607 7.13278C18.9956 7.08703 19.0408 7.05391 19.0961 7.03344C19.1527 7.01177 19.2123 7.00093 19.275 7.00093C19.3677 7.00093 19.4489 7.01659 19.5188 7.04789C19.5898 7.0792 19.6488 7.12194 19.6958 7.17613C19.7439 7.23031 19.7801 7.29112 19.8041 7.35854C19.8282 7.42597 19.8403 7.49581 19.8403 7.56805C19.8403 7.60056 19.8385 7.63247 19.8348 7.66378C19.8312 7.69388 19.8258 7.72338 19.8186 7.75228L19.8078 7.79201C19.774 7.89075 19.7174 7.97383 19.638 8.04125C19.5597 8.10868 19.4646 8.15986 19.3526 8.19477C19.2418 8.22969 19.119 8.24715 18.9842 8.24715H18.9462ZM20.0769 8.30133V7.02261H20.2322V8.30133H20.0769Z" fill="white"/>
<path d="M17.9554 3.58387C18.1528 3.58387 18.2991 3.54655 18.3943 3.4719C18.4906 3.39724 18.5387 3.27864 18.5387 3.11609C18.5387 3.06191 18.5315 3.01314 18.5171 2.9698C18.5026 2.92525 18.481 2.89033 18.4521 2.86504C18.4232 2.83855 18.3864 2.82531 18.3419 2.82531C18.3142 2.82531 18.2877 2.83554 18.2624 2.85601C18.2383 2.87528 18.2263 2.90719 18.2263 2.95174C18.2263 2.99629 18.245 3.03542 18.2823 3.06913C18.3196 3.10285 18.366 3.12813 18.4213 3.14499V3.27322H17.8687V3.13596H18.192C18.1595 3.10827 18.1336 3.07696 18.1143 3.04204C18.095 3.00712 18.0854 2.96558 18.0854 2.91742C18.0854 2.88009 18.0944 2.84457 18.1125 2.81086C18.1318 2.77594 18.1601 2.74765 18.1974 2.72597C18.2359 2.70309 18.2835 2.69166 18.3401 2.69166C18.4135 2.69166 18.4761 2.70972 18.5279 2.74584C18.5797 2.78196 18.6188 2.83193 18.6453 2.89575C18.673 2.95836 18.6868 3.0306 18.6868 3.11248C18.6868 3.25697 18.6579 3.37497 18.6002 3.46648C18.5424 3.55678 18.4587 3.62361 18.3491 3.66696C18.2407 3.7091 18.1107 3.73017 17.959 3.73017C17.8049 3.73017 17.676 3.70549 17.5725 3.65612C17.4689 3.60555 17.3913 3.53631 17.3395 3.44842C17.2877 3.36052 17.2618 3.25998 17.2618 3.1468C17.2618 3.04927 17.2781 2.96679 17.3106 2.89936C17.3431 2.83193 17.387 2.78076 17.4424 2.74584C17.499 2.70972 17.5622 2.69166 17.6321 2.69166C17.7103 2.69166 17.773 2.71333 17.8199 2.75668C17.8669 2.80002 17.8904 2.85902 17.8904 2.93367C17.8904 3.01074 17.8639 3.07576 17.8109 3.12873C17.7579 3.18051 17.6802 3.2064 17.5779 3.2064C17.543 3.2064 17.5111 3.20218 17.4822 3.19375C17.4545 3.18533 17.4292 3.17449 17.4063 3.16124C17.4087 3.23349 17.4286 3.30212 17.4659 3.36714C17.5044 3.43096 17.5634 3.48333 17.6429 3.52427C17.7224 3.56401 17.8265 3.58387 17.9554 3.58387ZM17.6321 2.81808C17.5755 2.81808 17.5285 2.83614 17.4912 2.87227C17.4539 2.90839 17.4286 2.96016 17.4153 3.02759C17.4346 3.04204 17.4563 3.05468 17.4804 3.06552C17.5057 3.07515 17.5345 3.07997 17.5671 3.07997C17.6309 3.07997 17.6772 3.06672 17.7061 3.04024C17.735 3.01375 17.7495 2.98003 17.7495 2.93909C17.7495 2.90056 17.7386 2.87106 17.717 2.85059C17.6953 2.82892 17.667 2.81808 17.6321 2.81808Z" fill="white"/>
<path d="M7.69338 6.40282L7.69118 6.49384C7.48557 6.49981 7.36192 6.61173 7.28289 6.79452C7.09997 7.22577 6.52705 8.58517 6.14656 9.47004H6.04705L5.44779 8.02932C5.20999 8.50384 4.94804 8.99925 4.72194 9.47004C4.71975 9.47228 4.61219 9.47004 4.61219 9.46781C4.26902 8.64933 3.90903 7.83683 3.56513 7.01612C3.48171 6.81691 3.20367 6.49384 3.01196 6.49608C3.01196 6.47295 3.00977 6.42147 3.00977 6.39014H4.19439V6.49384C4.0539 6.50205 3.80805 6.59308 3.87756 6.74901C4.0378 7.11982 4.6356 8.54189 4.79658 8.90226C4.90633 8.68067 5.2195 8.08752 5.34755 7.83683C5.24584 7.62568 4.91877 6.8378 4.81487 6.64307C4.74389 6.51026 4.55073 6.49832 4.40658 6.49608V6.39238L5.44925 6.39461V6.49235C5.3073 6.49683 5.17048 6.55055 5.23413 6.68709C5.37243 6.98553 5.45803 7.19518 5.58608 7.46825C5.62706 7.38767 5.83998 6.95046 5.93803 6.71618C6.00315 6.56249 5.90949 6.5028 5.65559 6.49683C5.65779 6.46997 5.65559 6.41998 5.65779 6.39536C5.98266 6.39312 6.47071 6.39312 6.55851 6.39088V6.49235C6.39388 6.49832 6.22339 6.58785 6.13339 6.72887L5.70023 7.64508C5.74706 7.7652 6.16339 8.71051 6.20656 8.81422L7.10216 6.70574C7.03924 6.53339 6.83583 6.49608 6.7568 6.49459V6.39088L7.69191 6.39909L7.69338 6.40282Z" fill="white"/>
</svg>
